<?xml version="1.0" encoding="UTF-8"?>
<svg width="100" height="100" viewBox="0 0 100 100" xmlns="http://www.w3.org/2000/svg">
  <!-- Motif de fond subtil avec symboles de premiers secours -->
  <defs>
    <pattern id="medical-pattern" patternUnits="userSpaceOnUse" width="100" height="100">
      <!-- Croix rouge subtile -->
      <path d="M20 10 L25 10 L25 5 L30 5 L30 10 L35 10 L35 15 L30 15 L30 20 L25 20 L25 15 L20 15 Z" fill="#f8d7d7" />
      
      <!-- Cœur stylisé -->
      <path d="M70 15 C70 10, 65 5, 60 5 C55 5, 50 10, 50 15 C50 10, 45 5, 40 5 C35 5, 30 10, 30 15 C30 25, 50 30, 50 40 C50 30, 70 25, 70 15 Z" fill="#f8d7d7" />
      
      <!-- Bandage stylisé -->
      <rect x="75" y="65" width="15" height="5" rx="2" fill="#f8d7d7" />
      <rect x="80" y="60" width="5" height="15" rx="2" fill="#f8d7d7" />
      
      <!-- Goutte de sang stylisée -->
      <path d="M25 70 C25 80, 35 85, 35 75 C35 70, 30 65, 25 70 Z" fill="#f8d7d7" />
    </pattern>
  </defs>
  
  <rect width="100" height="100" fill="url(#medical-pattern)" />
</svg>
