<?xml version="1.0" encoding="UTF-8"?>
<svg width="1200" height="200" viewBox="0 0 1200 200" xmlns="http://www.w3.org/2000/svg">
  <!-- Arrière-plan dégradé -->
  <defs>
    <linearGradient id="header-gradient" x1="0%" y1="0%" x2="100%" y2="0%">
      <stop offset="0%" style="stop-color:#E42313;stop-opacity:0.1" />
      <stop offset="50%" style="stop-color:#FFFFFF;stop-opacity:0.1" />
      <stop offset="100%" style="stop-color:#E42313;stop-opacity:0.1" />
    </linearGradient>
  </defs>
  
  <!-- Rectangle d'arrière-plan avec dégradé -->
  <rect width="1200" height="200" fill="url(#header-gradient)" />
  
  <!-- Motifs de croix rouge subtils -->
  <g opacity="0.07">
    <!-- Rangée de croix en haut -->
    <path d="M50 30 L70 30 L70 10 L90 10 L90 30 L110 30 L110 50 L90 50 L90 70 L70 70 L70 50 L50 50 Z" fill="#E42313" />
    <path d="M250 30 L270 30 L270 10 L290 10 L290 30 L310 30 L310 50 L290 50 L290 70 L270 70 L270 50 L250 50 Z" fill="#E42313" />
    <path d="M450 30 L470 30 L470 10 L490 10 L490 30 L510 30 L510 50 L490 50 L490 70 L470 70 L470 50 L450 50 Z" fill="#E42313" />
    <path d="M650 30 L670 30 L670 10 L690 10 L690 30 L710 30 L710 50 L690 50 L690 70 L670 70 L670 50 L650 50 Z" fill="#E42313" />
    <path d="M850 30 L870 30 L870 10 L890 10 L890 30 L910 30 L910 50 L890 50 L890 70 L870 70 L870 50 L850 50 Z" fill="#E42313" />
    <path d="M1050 30 L1070 30 L1070 10 L1090 10 L1090 30 L1110 30 L1110 50 L1090 50 L1090 70 L1070 70 L1070 50 L1050 50 Z" fill="#E42313" />
    
    <!-- Rangée de croix en bas -->
    <path d="M150 130 L170 130 L170 110 L190 110 L190 130 L210 130 L210 150 L190 150 L190 170 L170 170 L170 150 L150 150 Z" fill="#E42313" />
    <path d="M350 130 L370 130 L370 110 L390 110 L390 130 L410 130 L410 150 L390 150 L390 170 L370 170 L370 150 L350 150 Z" fill="#E42313" />
    <path d="M550 130 L570 130 L570 110 L590 110 L590 130 L610 130 L610 150 L590 150 L590 170 L570 170 L570 150 L550 150 Z" fill="#E42313" />
    <path d="M750 130 L770 130 L770 110 L790 110 L790 130 L810 130 L810 150 L790 150 L790 170 L770 170 L770 150 L750 150 Z" fill="#E42313" />
    <path d="M950 130 L970 130 L970 110 L990 110 L990 130 L1010 130 L1010 150 L990 150 L990 170 L970 170 L970 150 L950 150 Z" fill="#E42313" />
  </g>
  
  <!-- Ligne horizontale subtile -->
  <line x1="0" y1="190" x2="1200" y2="190" stroke="#E42313" stroke-width="2" stroke-opacity="0.2" />
</svg>
